<?xml version="1.0" standalone="no"?>
<!DOCTYPE svg PUBLIC "-//W3C//DTD SVG 20010904//EN"
 "http://www.w3.org/TR/2001/REC-SVG-20010904/DTD/svg10.dtd">
<svg version="1.0" xmlns="http://www.w3.org/2000/svg"
 width="256.000000pt" height="256.000000pt" viewBox="0 0 256.000000 256.000000"
 preserveAspectRatio="xMidYMid meet">
<metadata>
Created by potrace 1.14, written by Peter Selinger 2001-2017
</metadata>
<g transform="translate(0.000000,256.000000) scale(0.100000,-0.100000)"
fill="#000000" stroke="none">
<path d="M0 1280 l0 -1280 1280 0 1280 0 0 1280 0 1280 -1280 0 -1280 0 0
-1280z m2320 780 l0 -89 93 -3 92 -3 0 -30 0 -30 -92 -3 -93 -3 0 -89 0 -90
-30 0 -30 0 0 90 0 90 -90 0 -90 0 0 35 0 35 90 0 90 0 0 90 0 90 30 0 30 0 0
-90z m-1325 -250 c44 -16 75 -38 116 -79 56 -57 79 -104 94 -192 l7 -36 -69
-6 c-117 -12 -153 -9 -159 11 -19 59 -41 95 -70 113 -68 42 -207 34 -269 -15
-37 -30 -40 -84 -6 -120 27 -29 66 -44 239 -90 209 -56 287 -105 334 -210 32
-72 32 -190 -1 -263 -28 -62 -103 -136 -166 -163 -103 -44 -307 -52 -422 -16
-135 42 -229 155 -257 308 -6 36 -6 36 31 42 21 3 70 8 108 11 l70 7 13 -46
c27 -104 130 -165 254 -152 130 13 207 100 164 183 -20 39 -61 58 -220 100
-217 56 -302 107 -351 207 -88 180 5 362 216 421 81 22 265 15 344 -15z m1185
-77 l0 -88 -296 -360 -296 -360 306 -3 306 -2 0 -90 0 -90 -440 0 -440 0 0 98
0 97 285 347 c157 191 285 349 285 352 0 3 -112 6 -250 6 l-250 0 0 90 0 90
395 0 395 0 0 -87z"/>
</g>
</svg>
